<svg width="24" height="24" viewBox="0 0 24 24" fill="none" xmlns="http://www.w3.org/2000/svg">
<path d="M0.5 1.5C0.5 0.947715 0.947715 0.5 1.5 0.5H21.5C22.0523 0.5 22.5 0.947715 22.5 1.5V8.5C22.5 9.05228 22.0523 9.5 21.5 9.5H1.5C0.947716 9.5 0.5 9.05228 0.5 8.5V1.5Z" fill="var(--mw-icon-background-default-white, #FFFFFF)" stroke="var(--mw-icon-glyph-content-gray, #616162)"/>
<path d="M9.5 8.5L11.5 18.5L14.5 15.5L18.5 19.5C19 20 20 20 20.5 19.5C21 19 21 18 20.5 17.5L16.5 13.5L19.5 10.5L9.5 8.5Z" fill="white" stroke="var(--mw-icon-glyph-content-gray, #616162)" stroke-linejoin="round"/>
<path d="M4.5 6.5V4.5M4.5 4.5V2.5H5.5C6.05228 2.5 6.5 2.94772 6.5 3.5V3.5V3.5C6.5 4.05228 6.05228 4.5 5.5 4.5H4.5Z" stroke="var(--mw-icon-glyph-content-gray, #616162)" stroke-linecap="round" stroke-linejoin="round"/>
<path d="M8.5 2.5V4.5V5.5C8.5 6.05228 8.94772 6.5 9.5 6.5V6.5C10.0523 6.5 10.5 6.05228 10.5 5.5V4.5V2.5" stroke="var(--mw-icon-glyph-content-gray, #616162)" stroke-linecap="round" stroke-linejoin="round"/>
<path d="M14.5 2.5H13.5C12.9477 2.5 12.5 2.94772 12.5 3.5V3.5C12.5 4.05228 12.9477 4.5 13.5 4.5V4.5C14.0523 4.5 14.5 4.94772 14.5 5.5V5.5C14.5 6.05228 14.0523 6.5 13.5 6.5H12.5" stroke="var(--mw-icon-glyph-content-gray, #616162)" stroke-linecap="round" stroke-linejoin="round"/>
<path d="M16.5 2.5V4.5M16.5 6.5V4.5M16.5 4.5H18.5M18.5 2.5V6.5" stroke="var(--mw-icon-glyph-content-gray, #616162)" stroke-linecap="round" stroke-linejoin="round"/>
</svg>
