<svg width="24" height="24" viewBox="0 0 24 24" fill="none" xmlns="http://www.w3.org/2000/svg">
<path d="M0.5 9.5C0.5 8.94772 0.947715 8.5 1.5 8.5H22.5C23.0523 8.5 23.5 8.94772 23.5 9.5V14.5C23.5 15.0523 23.0523 15.5 22.5 15.5H1.5C0.947715 15.5 0.5 15.0523 0.5 14.5V9.5Z" fill="var(--mw-icon-background-default-light-gray, #F5F5F5)"/>
<path d="M17 9C17 8.72386 16.7761 8.5 16.5 8.5C16.2239 8.5 16 8.72386 16 9H17ZM16 15C16 15.2761 16.2239 15.5 16.5 15.5C16.7761 15.5 17 15.2761 17 15H16ZM1 9.5C1 9.22386 1.22386 9 1.5 9V8C0.671573 8 0 8.67157 0 9.5H1ZM1.5 9H22.5V8H1.5V9ZM22.5 9C22.7761 9 23 9.22386 23 9.5H24C24 8.67157 23.3284 8 22.5 8V9ZM23 9.5V14.5H24V9.5H23ZM23 14.5C23 14.7761 22.7761 15 22.5 15V16C23.3284 16 24 15.3284 24 14.5H23ZM22.5 15H1.5V16H22.5V15ZM1.5 15C1.22386 15 1 14.7761 1 14.5H0C0 15.3284 0.671573 16 1.5 16V15ZM1 14.5V9.5H0V14.5H1ZM16 9V15H17V9H16Z" fill="var(--mw-icon-border-default-gray, #616161)"/>
<mask id="path-3-inside-1_14848_32557" fill="var(--mw-icon-background-default-white, #FFFFFF)">
<path d="M18 11H22L20 13.5L18 11Z"/>
</mask>
<path d="M18 11H22L20 13.5L18 11Z" fill="var(--mw-icon-glyph-content-gray, #616162)" stroke="var(--mw-icon-border-default-gray, #616161)" stroke-width="2" mask="url(#path-3-inside-1_14848_32557)"/>
</svg>
