<svg width="24" height="24" viewBox="0 0 24 24" fill="none" xmlns="http://www.w3.org/2000/svg">
<path d="M0.5 7.5C0.5 6.94772 0.947715 6.5 1.5 6.5H22.5C23.0523 6.5 23.5 6.94772 23.5 7.5V15.5C23.5 16.0523 23.0523 16.5 22.5 16.5H1.5C0.947715 16.5 0.5 16.0523 0.5 15.5V7.5Z" fill="var(--mw-icon-background-default-light-gray, #F5F5F5)" stroke="var(--mw-icon-border-default-gray, #616161)"/>
<path d="M12 7H17V16H12V7Z" fill="var(--mw-icon-background-default-selection, #B4DEFF)"/>
<path d="M13 9H16V14H13V13H15V12H13V11H15L15 10H13V9Z" fill="var(--mw-icon-glyph-content-blue, #1656A8)"/>
<path d="M5 9H4V14H5V9Z" fill="var(--mw-icon-glyph-content-gray, #616162)"/>
<path d="M7 9V10H9V11H7V14H10V13H8V12H10V9H7Z" fill="var(--mw-icon-glyph-content-gray, #616162)"/>
<path d="M10 4H11V5H10V4Z" fill="var(--mw-icon-glyph-content-light-blue, #278CDD)"/>
<path d="M12 5H11V18H10V19H11V18H12V19H13V18H12V5Z" fill="var(--mw-icon-glyph-content-light-blue, #278CDD)"/>
<path d="M12 5V4H13V5H12Z" fill="var(--mw-icon-glyph-content-light-blue, #278CDD)"/>
</svg>
