<svg width="24" height="24" viewBox="0 0 24 24" fill="none" xmlns="http://www.w3.org/2000/svg">
<path d="M2 8H22" stroke="var(--mw-icon-glyph-disabled-gray, #888889)" stroke-width="4" stroke-linecap="round" stroke-linejoin="round"/>
<path d="M5.5 5C5.5 4.72386 5.72386 4.5 6 4.5H9C9.27614 4.5 9.5 4.72386 9.5 5V11.5599C9.5 11.6824 9.45506 11.8006 9.3737 11.8921L7.8737 13.5796C7.67481 13.8033 7.32519 13.8033 7.1263 13.5796L5.6263 11.8921C5.54494 11.8006 5.5 11.6824 5.5 11.5599V5Z" fill="var(--mw-icon-background-default-white, #FFFFFF)" stroke="var(--mw-icon-glyph-content-gray, #616162)"/>
<path d="M19.5 16.5H20C20 16.2239 19.7761 16 19.5 16V16.5ZM19 19.5C19 19.7761 19.2239 20 19.5 20C19.7761 20 20 19.7761 20 19.5H19ZM18.5 16C18.2239 16 18 16.2239 18 16.5C18 16.7761 18.2239 17 18.5 17V16ZM3 17.5V18.5H4V17.5H3ZM2 18.5V17.5H1V18.5H2ZM2.5 19C2.22386 19 2 18.7761 2 18.5H1C1 19.3284 1.67157 20 2.5 20V19ZM3 18.5C3 18.7761 2.77614 19 2.5 19V20C3.32843 20 4 19.3284 4 18.5H3ZM2.5 17C2.77614 17 3 17.2239 3 17.5H4C4 16.6716 3.32843 16 2.5 16V17ZM2.5 16C1.67157 16 1 16.6716 1 17.5H2C2 17.2239 2.22386 17 2.5 17V16ZM23 17.5V18.5H24V17.5H23ZM22 18.5V17.5H21V18.5H22ZM22.5 19C22.2239 19 22 18.7761 22 18.5H21C21 19.3284 21.6716 20 22.5 20V19ZM23 18.5C23 18.7761 22.7761 19 22.5 19V20C23.3284 20 24 19.3284 24 18.5H23ZM22.5 17C22.7761 17 23 17.2239 23 17.5H24C24 16.6716 23.3284 16 22.5 16V17ZM22.5 16C21.6716 16 21 16.6716 21 17.5H22C22 17.2239 22.2239 17 22.5 17V16ZM19 16.5V19.5H20V16.5H19ZM19.5 16H18.5V17H19.5V16Z" fill="var(--mw-icon-object-primary, #616160)"/>
<path d="M2.5 11.5V14.5M20.5 11.5V14.5M16.5 11.5V12.5M12.5 11.5V12.5" stroke="var(--mw-icon-border-disabled-gray, #888888)" stroke-linecap="round"/>
</svg>
