<svg width="24" height="24" viewBox="0 0 24 24" fill="none" xmlns="http://www.w3.org/2000/svg">
<path d="M16 8.5C16 7.94772 16.4477 7.5 17 7.5H22.5C23.0523 7.5 23.5 7.94772 23.5 8.5V16.5C23.5 17.0523 23.0523 17.5 22.5 17.5H17C16.4477 17.5 16 17.0523 16 16.5V8.5Z" fill="var(--mw-icon-background-default-light-gray, #F5F5F5)" stroke="var(--mw-icon-border-default-gray, #616161)"/>
<path d="M0.5 8.5C0.5 7.94772 0.947715 7.5 1.5 7.5H16.5V17.5H1.5C0.947715 17.5 0.5 17.0523 0.5 16.5V8.5Z" fill="var(--mw-icon-background-default-white, #FFFFFF)" stroke="var(--mw-icon-border-default-gray, #616161)"/>
<path d="M16.5 8V17" stroke="var(--mw-icon-glyph-content-gray, #616162)" stroke-linecap="round" stroke-linejoin="round"/>
<path d="M16.5 12.5H23.5" stroke="var(--mw-icon-glyph-content-gray, #616162)" stroke-linecap="round" stroke-linejoin="round"/>
<path d="M20 15.6996L19.0403 14.5H20.9597L20 15.6996Z" fill="var(--mw-icon-glyph-content-gray, #616162)" stroke="var(--mw-icon-glyph-content-gray, #616162)"/>
<path d="M20 9.30039L19.0403 10.5H20.9597L20 9.30039Z" fill="var(--mw-icon-glyph-content-gray, #616162)" stroke="var(--mw-icon-glyph-content-gray, #616162)"/>
<path d="M13.5 10.5H14C14 10.2239 13.7761 10 13.5 10V10.5ZM13 14.5C13 14.7761 13.2239 15 13.5 15C13.7761 15 14 14.7761 14 14.5H13ZM12.5 10C12.2239 10 12 10.2239 12 10.5C12 10.7761 12.2239 11 12.5 11V10ZM13 10.5V14.5H14V10.5H13ZM13.5 10H12.5V11H13.5V10Z" fill="var(--mw-icon-glyph-content-gray, #616162)"/>
</svg>
